<svg width="346" height="72" viewBox="0 0 346 72" fill="none" xmlns="http://www.w3.org/2000/svg">
<path d="M79.0391 23.961C76.6495 23.961 74.3317 24.6856 71.0094 28.5613C67.7534 24.6856 65.728 23.961 62.7865 23.961C60.1044 23.7026 57.4444 24.6294 55.4798 26.5055C53.8352 28.4714 53.0019 31.0047 53.1564 33.5829V46.5749H59.8561V34.7175C59.7844 33.5042 60.1872 32.319 60.9819 31.4091C61.7932 30.5946 62.9024 30.1677 64.0338 30.2239C65.2203 30.1621 66.3737 30.6227 67.2015 31.4877C67.8693 32.3752 68.2004 33.4761 68.1397 34.5883V46.5749H74.0061V35.2399C73.8184 33.9929 74.1054 32.7178 74.8173 31.6843C75.6451 30.8193 76.7985 30.3587 77.9851 30.4205C79.1219 30.3587 80.2312 30.7912 81.0369 31.6057C81.8261 32.51 82.2345 33.7008 82.1627 34.9141V46.5693H88.8624V33.5772C89.0114 30.9991 88.1781 28.4658 86.539 26.4999C84.4695 24.68 81.7764 23.77 79.0502 23.961" fill="#FF5566"/>
<path d="M106.787 35.8186C106.875 37.1835 106.456 38.5259 105.606 39.5876C104.772 40.4919 103.591 40.9749 102.377 40.9132C101.207 40.9693 100.065 40.5087 99.2482 39.6493C98.4204 38.6608 98.0065 37.3857 98.0838 36.0938V23.9443H91.3896V36.942C91.2461 39.4921 92.0408 42.0085 93.6136 43.9969C95.1368 45.7269 97.3443 46.6705 99.6235 46.5638C101.152 46.5975 102.659 46.1931 103.978 45.4011C105.197 44.6597 106.174 43.5756 106.792 42.2725V46.3223H113.569V23.95H106.792V35.813L106.787 35.8186Z" fill="#FF5566"/>
<path d="M131.886 28.0108C131.356 26.6964 130.429 25.5899 129.248 24.8428C127.946 24.0396 126.439 23.6408 124.916 23.6801C123.2 23.652 121.505 24.1351 120.054 25.0619C118.581 26.0336 117.405 27.4098 116.666 29.0331C115.01 32.9256 115.01 37.3462 116.666 41.2387C117.4 42.8676 118.575 44.2494 120.054 45.2268C121.511 46.1536 123.2 46.6366 124.916 46.6085C126.439 46.6535 127.94 46.249 129.248 45.4458C130.435 44.6988 131.356 43.5922 131.886 42.2779V46.3333H138.624V16.6589H131.886V28.0052V28.0108ZM130.567 39.1155C128.647 41.0758 125.534 41.0927 123.592 39.1548C121.831 36.7845 121.831 33.5098 123.592 31.1394C124.497 30.1677 125.771 29.6397 127.085 29.6959C128.404 29.6509 129.673 30.1846 130.578 31.1619C132.388 33.4929 132.388 36.7901 130.578 39.1211H130.562L130.567 39.1155Z" fill="#FF5566"/>
<path d="M157.156 28.0108C156.599 26.7021 155.666 25.5955 154.48 24.8428C153.177 24.0396 151.671 23.6408 150.147 23.6801C148.431 23.6521 146.737 24.1351 145.285 25.0619C143.812 26.0336 142.636 27.4098 141.897 29.0331C140.241 32.9256 140.241 37.3462 141.897 41.2387C142.631 42.8677 143.806 44.2494 145.285 45.2268C146.742 46.1536 148.431 46.6366 150.147 46.6085C151.671 46.6479 153.172 46.2491 154.48 45.4458C155.666 44.6932 156.604 43.5866 157.156 42.2779V46.3277H163.856V23.9554H157.156V28.0052V28.0108ZM155.799 39.1155C153.878 41.0758 150.766 41.0927 148.823 39.1548C147.062 36.7845 147.062 33.5098 148.823 31.1395C149.728 30.1677 151.003 29.6397 152.316 29.6959C153.63 29.651 154.899 30.1846 155.804 31.1619C157.614 33.493 157.614 36.7901 155.804 39.1211H155.799V39.1155Z" fill="#FF5566"/>
<path d="M196.703 23.9611L191.781 37.6721L186.499 23.9611H175.28C175.252 23.1073 175.545 22.2704 176.108 21.6357C176.792 21.0964 177.647 20.8381 178.508 20.9167L179.259 20.956V15.0638C178.944 15.0357 178.47 15.0245 177.84 15.0245C175.335 14.8448 172.863 15.6592 170.926 17.2881C169.259 18.9845 168.387 21.3267 168.536 23.7195V23.9611H165.898V29.7353H168.547V46.3334H175.285V29.7353H181.461L188.205 45.4909L183.045 57H190.44L204.148 23.9667H196.709L196.703 23.9611Z" fill="#FF5566"/>
<path d="M36.5615 47.1365V23.6071V23.5903C36.5505 19.7539 33.4931 16.6421 29.7239 16.6421H9.05078L12.6214 23.5903H29.3431C29.5473 23.5903 29.7128 23.7588 29.7128 23.9666V46.5243C29.7128 46.7321 29.5473 46.9006 29.3431 46.9006H9.77373V53.8713H29.7128C33.4766 54.0004 36.5615 50.9729 36.5615 47.1365Z" fill="#FF5566"/>
<path d="M6.97565 40.6435H13.5926C15.4634 40.6211 16.9755 39.0708 16.9755 37.161C16.9755 36.5038 16.7934 35.8972 16.4844 35.3748L5.48008 16.7827C3.03529 17.2658 1.05408 19.0744 0.292495 21.4448L7.53304 33.6785H0V46.8896C0 46.8896 0 46.9064 0 46.9177C0 50.7203 2.99666 53.8097 6.71627 53.8771H6.83768H6.97013V40.6491L6.97565 40.6435Z" fill="#FF5566"/>
<path d="M226.077 25.4926C228.616 25.4926 230.672 26.2669 232.246 27.8154C233.82 29.3386 234.607 31.5472 234.607 34.4412V46.7407H231.18V34.9362C231.18 32.8546 230.659 31.2679 229.619 30.1763C228.578 29.0593 227.156 28.5008 225.354 28.5008C223.526 28.5008 222.066 29.072 220.975 30.2144C219.908 31.3568 219.375 33.0196 219.375 35.2028V46.7407H215.91V25.8734H219.375V28.8436C220.061 27.7773 220.987 26.9523 222.155 26.3684C223.348 25.7845 224.656 25.4926 226.077 25.4926ZM238.211 36.2309C238.211 34.0985 238.643 32.2326 239.506 30.6333C240.369 29.0086 241.549 27.752 243.047 26.8634C244.57 25.9749 246.258 25.5307 248.112 25.5307C249.939 25.5307 251.526 25.9242 252.872 26.7111C254.217 27.4981 255.22 28.4882 255.88 29.6813V25.8734H259.383V46.7407H255.88V42.8567C255.194 44.0752 254.166 45.0906 252.795 45.903C251.45 46.69 249.876 47.0834 248.074 47.0834C246.22 47.0834 244.545 46.6265 243.047 45.7126C241.549 44.7987 240.369 43.5167 239.506 41.8666C238.643 40.2165 238.211 38.3379 238.211 36.2309ZM255.88 36.269C255.88 34.695 255.562 33.3242 254.928 32.1564C254.293 30.9887 253.43 30.1002 252.338 29.4909C251.272 28.8563 250.092 28.5389 248.797 28.5389C247.502 28.5389 246.322 28.8436 245.256 29.4528C244.189 30.0621 243.339 30.9506 242.704 32.1184C242.07 33.2861 241.752 34.657 241.752 36.2309C241.752 37.8302 242.07 39.2265 242.704 40.4196C243.339 41.5874 244.189 42.4886 245.256 43.1232C246.322 43.7325 247.502 44.0371 248.797 44.0371C250.092 44.0371 251.272 43.7325 252.338 43.1232C253.43 42.4886 254.293 41.5874 254.928 40.4196C255.562 39.2265 255.88 37.8429 255.88 36.269ZM268.704 28.7293V41.0289C268.704 42.0443 268.92 42.7678 269.351 43.1994C269.783 43.6055 270.532 43.8086 271.598 43.8086H274.149V46.7407H271.027C269.098 46.7407 267.651 46.2965 266.686 45.408C265.721 44.5194 265.239 43.0597 265.239 41.0289V28.7293H262.535V25.8734H265.239V20.6185H268.704V25.8734H274.149V28.7293H268.704ZM279.376 22.4844C278.716 22.4844 278.158 22.2559 277.701 21.7989C277.244 21.342 277.015 20.7835 277.015 20.1234C277.015 19.4634 277.244 18.9049 277.701 18.448C278.158 17.991 278.716 17.7625 279.376 17.7625C280.011 17.7625 280.544 17.991 280.975 18.448C281.432 18.9049 281.661 19.4634 281.661 20.1234C281.661 20.7835 281.432 21.342 280.975 21.7989C280.544 22.2559 280.011 22.4844 279.376 22.4844ZM281.052 25.8734V46.7407H277.586V25.8734H281.052ZM293.964 43.5421L300.437 25.8734H304.131L295.944 46.7407H291.908L283.721 25.8734H287.452L293.964 43.5421ZM305.485 36.2309C305.485 34.0985 305.916 32.2326 306.779 30.6333C307.642 29.0086 308.823 27.752 310.321 26.8634C311.844 25.9749 313.532 25.5307 315.385 25.5307C317.213 25.5307 318.8 25.9242 320.145 26.7111C321.491 27.4981 322.493 28.4882 323.153 29.6813V25.8734H326.657V46.7407H323.153V42.8567C322.468 44.0752 321.44 45.0906 320.069 45.903C318.723 46.69 317.149 47.0834 315.347 47.0834C313.494 47.0834 311.818 46.6265 310.321 45.7126C308.823 44.7987 307.642 43.5167 306.779 41.8666C305.916 40.2165 305.485 38.3379 305.485 36.2309ZM323.153 36.269C323.153 34.695 322.836 33.3242 322.201 32.1564C321.567 30.9887 320.704 30.1002 319.612 29.4909C318.546 28.8563 317.365 28.5389 316.071 28.5389C314.776 28.5389 313.595 28.8436 312.529 29.4528C311.463 30.0621 310.613 30.9506 309.978 32.1184C309.343 33.2861 309.026 34.657 309.026 36.2309C309.026 37.8302 309.343 39.2265 309.978 40.4196C310.613 41.5874 311.463 42.4886 312.529 43.1232C313.595 43.7325 314.776 44.0371 316.071 44.0371C317.365 44.0371 318.546 43.7325 319.612 43.1232C320.704 42.4886 321.567 41.5874 322.201 40.4196C322.836 39.2265 323.153 37.8429 323.153 36.269Z" fill="#FF5566"/>
</svg>
